<?xml version="1.0" encoding="utf-8"?>
<!-- Generator: Adobe Illustrator 24.3.0, SVG Export Plug-In . SVG Version: 6.00 Build 0)  -->
<svg version="1.1" id="Layer_1" xmlns="http://www.w3.org/2000/svg" xmlns:xlink="http://www.w3.org/1999/xlink" x="0px" y="0px"
	 viewBox="0 0 50 50" style="enable-background:new 0 0 50 50;" xml:space="preserve">
<style type="text/css">
	.st0{fill:none;stroke:#010101;stroke-width:2;stroke-miterlimit:10;}
	.st1{fill:none;stroke:#6B6B6B;stroke-miterlimit:10;}
	.st2{fill:none;stroke:#6B6B6B;stroke-width:0.5;stroke-miterlimit:10;}
</style>
<path class="st0" d="M264.1,481.4c0,0-4.5-4.5-4.1-11.3c0.1-1.2,0.3-2.5,0.7-3.8c0.2-0.8,0.6-1.7,1-2.5c1.6-3.4,4.7-7.1,9.8-10.9
	c0,0-11-14.7-3.1-20c7.9-5.3,5.7-14.5,5.7-14.5s7.9-16.9,26.3-14.2c18.4,2.7,43.5,22.1,43.5,22.1s21.1,9.9,20.4,24.3
	c-0.7,14.4,14.9,61.6-42.5,82c0,0-18.6,1.5-27.8-6.5c-9.2-7.9-28.1,6-40.2-27.3c-6.7-18.2-10.5-35.5-7-50c2.8-12,10.7-22,25.9-29.2
	c33.8-15.9-20.6,2.2-11.7,45.2"/>
<path class="st0" d="M298.6,457.3c0,0-4.2-10.7-27.2-4.5"/>
<path class="st0" d="M277.3,431.2c0,0,4.2-7.7,10.7-5.7"/>
<path class="st0" d="M288,405.4c0,0-7.7-19.4,0-15.4c7.7,4,17.5,15.3,17.5,15.3"/>
<path class="st0" d="M315.5,449.8c0,0,10.4,5.5,1.7,7.5s-3.2-9.9-17.6,1.2c-6.2,9.9,5.8,12.9,5.8,12.9s6.2,10.9,0.5,22.4"/>
<path class="st0" d="M320.7,488.1c0,0,2.6,5.4-12.4-3.5"/>
<path class="st1" d="M17.6,31.5c0.3,1.5,0.2,2.6-0.1,3.4c-0.4,1-1.2,1.6-2,2c-1.5,0.7-3.3,0.8-4,1.4c-1.5,1.3,4.6,4,3.4,5.4
	s-6.2-2.2-6.2-2.2c-3.8-1.4,1.5-9,1.5-9c-7.6,7,0.8,11.2-0.7,12.6S4,41.3,4,41.3c-1.7-6.7,2.8-9.9,2.8-9.9C12.3,15,32.6,18,32.6,18"
	/>
<path class="st1" d="M30,32.7c0,0-10.3,3.1-12.2,2.4c-1.9-0.6,7,3.4,2.2,3.8C17,38.7,15.2,37,15.2,37"/>
<path class="st1" d="M41.1,29.4c0,0,5.4,3.9,5.3,2.1S42.6,27,42.6,27"/>
<path class="st1" d="M32.4,12.9c0,0-0.9-4,1.8-1.5c2.7,2.5,3.4,2.4,3.4,2.4s3-1.1,3.5-0.8s2.4-4.9,3.4-3.3s0.2,10.6,0.2,10.6
	s-1.5,2.4-5,3.6s-6.9-1.7-6.9-2.5S31.9,13,32.4,12.9z"/>
<path class="st1" d="M31.4,28.1c0,0-4.2,5.8,1.5,4.9c0,0,10.8,3.9,9.5,1.1c0,0-6.5-3.3-4.4-3.6c1.1-0.1,2.2-0.5,3.1-1.1
	c0.8-0.6,1.4-1.4,1.4-2.5c0-2.3,0-3.8,0-3.8c0-0.1,0-0.3,0-0.4"/>
<path class="st1" d="M39.7,17.8c0,0,1.4-1.4,1.9-0.6c0.5,0.8,0.2,1.7-0.9,1.9C39.5,19.3,39.7,17.8,39.7,17.8z"/>
<path class="st1" d="M37.5,18.2c0,0-2.1-1-2.5,0.8c-0.4,1.8,2.4,0.6,2.4,0.6S38,18.2,37.5,18.2z"/>
<ellipse class="st2" cx="36.2" cy="19.1" rx="0.4" ry="0.9"/>
<path class="st1" d="M40,22c0,0-0.2-0.7-1.6-0.1c-1.4,0.6,0.6,1.2,0.6,1.2S40.3,22.5,40,22z"/>
<path class="st1" d="M38.4,23.7c0,0,0.5-1.3,1.8-0.5"/>
<ellipse class="st1" cx="39.5" cy="25.4" rx="1" ry="1.2"/>
<ellipse class="st2" cx="40.7" cy="18.6" rx="0.4" ry="0.6"/>
</svg>
