<?xml version="1.0" encoding="utf-8"?>
<!-- Generator: Adobe Illustrator 24.3.0, SVG Export Plug-In . SVG Version: 6.00 Build 0)  -->
<svg version="1.1" id="Layer_1" xmlns="http://www.w3.org/2000/svg" xmlns:xlink="http://www.w3.org/1999/xlink" x="0px" y="0px"
	 viewBox="0 0 50 50" style="enable-background:new 0 0 50 50;" xml:space="preserve">
<style type="text/css">
	.st0{fill:none;stroke:#6B6B6B;stroke-miterlimit:10;}
</style>
<path class="st0" d="M23.8,17.5c0,0,7-2.4,7.5-4.7S39.1,9,39.5,10s1.7-3.3,9.1-2.1c0.6,1.3-4,5.3-4,5.3s4.5,4,0.2,7.8
	c-0.9,0.8-1.7,1.6-2.3,2.2c-2.1,2.2-2.3,3.1-2.3,3.1s-9-0.8-10.8-5.3C29.5,21,23.6,21,23.8,17.5z"/>
<path class="st0" d="M24.8,17c0,0-22.4-3.5-23.1,18.1v2.2"/>
<path class="st0" d="M42.7,27.4c0,0,3.4,2.1,1.9,2.8s-3.5,0-3.5,0L42.7,27.4z"/>
<path class="st0" d="M1.7,37.4c0,0-1.6,5.3,5.7,6.5c7.3,1.2,15-2.7,15-2.7s2.7-1.6-6.2-0.5C7.4,41.8,3.1,38.9,1.7,37.4z"/>
<path class="st0" d="M3.1,38.5c0,0-0.8-9.8,10.2-6c4.1,2.2,0,8.2,0,8.2"/>
<path class="st0" d="M39.3,22.5"/>
<polygon class="st0" points="38.5,22 39.9,22.6 40.6,20.8 "/>
<path class="st0" d="M40.2,22.5"/>
<polyline class="st0" points="41.8,22.5 40,22.8 39.7,24.1 "/>
<ellipse transform="matrix(0.8185 -0.5745 0.5745 0.8185 -2.9172 27.3314)" class="st0" cx="41.8" cy="18.3" rx="1.8" ry="0.9"/>
<ellipse transform="matrix(0.8185 -0.5745 0.5745 0.8185 -5.9668 24.2228)" class="st0" cx="35.4" cy="21.6" rx="1.8" ry="0.9"/>
<ellipse transform="matrix(0.8852 -0.4652 0.4652 0.8852 -3.8322 21.4516)" class="st0" cx="41.5" cy="18.5" rx="0.4" ry="0.7"/>
<ellipse transform="matrix(0.8852 -0.4652 0.4652 0.8852 -6.0552 18.8565)" class="st0" cx="35.2" cy="21.7" rx="0.4" ry="0.7"/>
<path class="st0" d="M27.9,32.4c0,0-1.1,6.9,0.6,6.6s5.7-4,16.5-4.3c10.7-0.3-3.9-6.8-9.8-2.5"/>
<path class="st0" d="M13.9,39.5c0,0,12.2,2,13.7-3.4"/>
<path class="st0" d="M43.2,22.5c0,0,0.4,4-1.7,6.9"/>
</svg>
