<?xml version="1.0" encoding="utf-8"?>
<!-- Generator: Adobe Illustrator 24.3.0, SVG Export Plug-In . SVG Version: 6.00 Build 0)  -->
<svg version="1.1" id="Layer_1" xmlns="http://www.w3.org/2000/svg" xmlns:xlink="http://www.w3.org/1999/xlink" x="0px" y="0px"
	 viewBox="0 0 50 50" style="enable-background:new 0 0 50 50;" xml:space="preserve">
<style type="text/css">
	.st0{fill:none;stroke:#6B6B6B;stroke-miterlimit:10;}
	.st1{fill:none;stroke:#6B6B6B;stroke-width:0.75;stroke-miterlimit:10;}
</style>
<path class="st0" d="M8.6,16.9c0,0,6.2-1.9,8.3-0.3c0,0,4.2-5.1,7.3-4.8c0,0-0.5,5.5-1.2,6.5c-0.8,1,7.2,1.2,7.2,1.2
	s11-4.2,14.7,1.5s1,14.5,1,14.5S29.1,40.7,25,37.6c0,0-11.4,2.2-10.6-7l-2.3,0.1c0,0-7-4.7-7-5.6c0-0.9-1.2-8.9-2.7-8.9
	s1.4-1.7,3.4-0.7S7.6,16.6,8.6,16.9z"/>
<path class="st0" d="M13.2,30.7"/>
<path class="st0" d="M11.1,26.7h2.8c0,0-0.3,2-1.4,1.8C11.4,28.3,11.1,26.7,11.1,26.7z"/>
<path class="st0" d="M25,37.6c0,0-3.1-3.4,2.1-3.4s1.8,2.7,12.8-1.1c0,0,7.9-4.7,6.9-3.2"/>
<path class="st0" d="M39.3,30.7c0,0-2.5-0.5-2.2,3.4"/>
<path class="st0" d="M7.3,22.4c0,0,4.1-0.9,2.5,2.8c0,0-2.5,0.3-2.5-0.9C7.3,24.3,7,22.8,7.3,22.4z"/>
<path class="st0" d="M14.8,24.5c0,0-0.5-2.7,2.8-3.1c0,0,0.1,2.2-0.9,3.1S14.8,24.5,14.8,24.5z"/>
<path class="st1" d="M12.5,18.7"/>
<ellipse class="st1" cx="8" cy="24.1" rx="0.3" ry="0.4"/>
<ellipse class="st1" cx="15.5" cy="24" rx="0.3" ry="0.4"/>
</svg>
