<?xml version="1.0" encoding="utf-8"?>
<!-- Generator: Adobe Illustrator 24.3.0, SVG Export Plug-In . SVG Version: 6.00 Build 0)  -->
<svg version="1.1" id="Layer_1" xmlns="http://www.w3.org/2000/svg" xmlns:xlink="http://www.w3.org/1999/xlink" x="0px" y="0px"
	 viewBox="0 0 50 50" style="enable-background:new 0 0 50 50;" xml:space="preserve">
<style type="text/css">
	.st0{fill:none;stroke:#6B6B6B;stroke-miterlimit:10;}
</style>
<path class="st0" d="M19.2,13.2c0,0,2.9-2.3,9.1-1.5c0,0,4.9-7.2,6.3-4.5s0,6.2,0,6.2s5.9,0.5,3.3,6.6s-7.4,9.1-18.3,9.5
	c0,0-6.6-0.4-9.1-5.7c0,0-0.5-6,1.8-6.9c0,0-0.8-8.7,2-7.1S19.2,13.2,19.2,13.2z"/>
<path class="st0" d="M38.6,18.9c0,0,6.2,2.6,3,8.1"/>
<path class="st0" d="M37.2,21.6c0,0,9,5.3,2,16.7c0,0-7,6.5-10.7,1.7c0,0,0.2-2.5,3.8-2.2"/>
<path class="st0" d="M21.1,40.4c2.2,1.8,7.3,0.7,7.3,0.7s1-0.2,1-0.4"/>
<path class="st0" d="M10.9,21.3c0,0-6.1,4.8-2.6,9.6"/>
<path class="st0" d="M17.7,38.3c8.3,2.1-0.7,7-7.2,2.1s0-15.1,0-15.1l0.5-0.4"/>
<path class="st0" d="M21.5,29.6c0,0-0.3,4,1.9,3.5s2.5-0.1,2.6-3.5L21.5,29.6"/>
<path class="st0" d="M23,24c0,0,0.8-1.4,3-1C26,23,25.1,27.2,23,24z"/>
<path class="st0" d="M24.7,25.3c0,3.9-3.3,1.8-3.3,1.8"/>
<path class="st0" d="M27.7,24.1c0,0-0.4,2.4-2.5,1.2"/>
<ellipse class="st0" cx="17.6" cy="21.8" rx="0.8" ry="1.2"/>
<path class="st0" d="M16.9,23.3c0,0-2.7-1.4-1-4.4c1.9-1.1,5.1,3.2,2.5,4.6C18.4,23.5,17.4,23.7,16.9,23.3z"/>
<path class="st0" d="M28.4,20.4c0,0,3.2,2.5,3.9-0.8c0.7-3.3-3-3.4-3-3.4S26.7,17.8,28.4,20.4z"/>
<ellipse class="st0" cx="30.3" cy="19.8" rx="0.8" ry="1.2"/>
</svg>
