<?xml version="1.0" encoding="utf-8"?>
<!-- Generator: Adobe Illustrator 24.3.0, SVG Export Plug-In . SVG Version: 6.00 Build 0)  -->
<svg version="1.1" id="Layer_1" xmlns="http://www.w3.org/2000/svg" xmlns:xlink="http://www.w3.org/1999/xlink" x="0px" y="0px"
	 viewBox="0 0 50 50" style="enable-background:new 0 0 50 50;" xml:space="preserve">
<style type="text/css">
	.st0{fill:none;stroke:#6B6B6B;stroke-width:0.75;stroke-miterlimit:10;}
	.st1{fill:none;stroke:#6B6B6B;stroke-width:0.5;stroke-miterlimit:10;}
</style>
<path class="st0" d="M13.1,24c0,0,1.8-0.4,5,1.1s7.2-7.3,7.2-7.3s2.8-5.5,7.7-2.6s0.7,9.8,0.7,9.8s-1.8,3.2-0.2,5.7
	s-0.8,6.6-0.8,6.6s-2.1,1.1-1.4-0.3c0.7-1.4,1.3-2.4-0.9-7.8c-2.6-3.2-1.2-4.9-1.2-4.9"/>
<path class="st0" d="M11.7,25.7c0,0-0.2-0.4-0.4-0.8c-0.3-0.7-0.6-1.5-0.5-1.8c0.2-0.5,3,1.6,3,1.6"/>
<path class="st0" d="M4.1,35.6c0,0-2.2-0.3,0-1.2c2.2-1,6.3-1.6,6.3-1.6"/>
<path class="st0" d="M11.6,32.1c0,0-1.8-1-2.2-2.2c0,0,0.9-0.7,0.7-2.2s0-2.7,1.2-2.8"/>
<path class="st0" d="M13.1,31.2c0,0-4.4,2.9-7.2,3.4S4,36.1,4,36.1s2.1,1.5,5.4,0.3s12-1.4,12-1.4s5.1-1.1,7.4-6.2l0.6-1.1"/>
<path class="st0" d="M28.9,29.3c0,0,2.7,1.6,0.4,7.1c0,0,2.8-0.1,2.7-1.9"/>
<line class="st0" x1="9.8" y1="29.5" x2="9.6" y2="30.3"/>
<path class="st1" d="M11,28.5c0,0-0.3-1.3,1.1-0.9C12.1,27.6,12.5,29.1,11,28.5z"/>
<path class="st0" d="M35.6,19.7c0.5,4.9,6.2,9.1,6.2,9.1s3.4,1.6,4.3-0.7s-0.5-1.3-0.5-1.3c-1.5,2.4-5.2,0.6-7.4-5.6
	c-2.1-6.2-5-5.8-5-5.8"/>
</svg>
