<?xml version="1.0" encoding="utf-8"?>
<!-- Generator: Adobe Illustrator 24.3.0, SVG Export Plug-In . SVG Version: 6.00 Build 0)  -->
<svg version="1.1" id="Layer_1" xmlns="http://www.w3.org/2000/svg" xmlns:xlink="http://www.w3.org/1999/xlink" x="0px" y="0px"
	 viewBox="0 0 50 50" style="enable-background:new 0 0 50 50;" xml:space="preserve">
<style type="text/css">
	.st0{fill:none;stroke:#6B6B6B;stroke-miterlimit:10;}
	.st1{fill:none;stroke:#6B6B6B;stroke-width:1;stroke-miterlimit:9.9995;}
	.st2{fill:none;stroke:#6B6B6B;stroke-width:1;stroke-miterlimit:9.9997;}
</style>
<path class="st0" d="M29.2,25.2c0,0,3.6,7.9,10.6,8.3c6.2-0.8,8.5-5.9,8.5-5.9s1.3-6.3,0.5-6.4c-0.7-0.1,0.2-7.4,0.2-7.4
	s-4.1,0-7,5.4c0,0-4-0.5-6.8,0.7c0,0-2.2-5-4.8-7.4s-1.2,9.3-1.2,9.3S29.2,25.2,29.2,25.2z"/>
<path class="st0" d="M28.6,18.4c0,0-13.2-5.9-23.9,3.5S12,36.6,12,36.6s8.8-0.5,10.5,0.7c0,0,5.1-0.6,6.8,2c1.3,1.9,2.9-0.9,1.7-1.3
	c-1.2-0.3-6.3-6.4-19.6-5.6c0,0-3.1-0.8-4.2-3.4"/>
<path class="st0" d="M13.8,25.5c0,0,5.9-5.2,6.3,7.5"/>
<path class="st0" d="M25.8,30.3c0,0-2.8,7.2,10,7.8c0,0,7.3,2.4,8.1-0.8c0,0-2.9-2.4-10.6-4.2"/>
<path class="st0" d="M39.8,34.7c0,0,1.9-2.7,4-0.5s0,3,0,3L39.8,34.7z"/>
<line class="st0" x1="43.2" y1="32.7" x2="43.5" y2="33.9"/>
<path class="st0" d="M34.3,27c0,0-1.3-0.6-0.5-1.8c0.8-1.2,4.6,0.9,4.6,0.9s0.6,1,0,1.6S34.3,27,34.3,27z"/>
<path class="st0" d="M40.7,27.3c0,0-0.4-0.5,0.4-1.4s3.8-1.2,3.8-1.2s0.6,1.8-1.4,2.6S40.7,27.3,40.7,27.3z"/>
<ellipse transform="matrix(0.1801 -0.9836 0.9836 0.1801 3.6152 57.464)" class="st1" cx="36.3" cy="26.6" rx="1.1" ry="0.4"/>
<ellipse transform="matrix(0.9987 -5.036342e-02 5.036342e-02 0.9987 -1.2703 2.189)" class="st2" cx="42.8" cy="26.3" rx="0.4" ry="1.1"/>
<path class="st0" d="M39.5,30.5c0,0,2-1.4,1.2-1.5s-2.4,0.3-2.4,0.3S38,29.6,39.5,30.5z"/>
<line class="st0" x1="39.6" y1="30.6" x2="39.6" y2="31.5"/>
<path class="st0" d="M38.3,32.1c0,0,0.9-1.5,3.3-0.5"/>
</svg>
