<?xml version="1.0" encoding="utf-8"?>
<!-- Generator: Adobe Illustrator 24.3.0, SVG Export Plug-In . SVG Version: 6.00 Build 0)  -->
<svg version="1.1" id="Layer_1" xmlns="http://www.w3.org/2000/svg" xmlns:xlink="http://www.w3.org/1999/xlink" x="0px" y="0px"
	 viewBox="0 0 50 50" style="enable-background:new 0 0 50 50;" xml:space="preserve">
<style type="text/css">
	.st0{fill:none;stroke:#6B6B6B;stroke-miterlimit:10;}
	.st1{fill:none;stroke:#6B6B6B;stroke-width:0.9999;stroke-miterlimit:9.9995;}
</style>
<path class="st0" d="M20.4,15.9c0,0,4.2,2.1,6.7-0.4c0.5-0.5,1-1.3,1.3-2.3c0,0,0.9-1.5-1.3-4.7S25,3.1,25,3.1s-0.8-1.5-1.6,3.2
	c-3,1.9-4.2,3.4-4.2,3.4l-3.9-1.1c0,0-0.7,1.1,2.3,4.9l1.9,1.5L20.4,15.9z"/>
<path class="st0" d="M31.5,28.8c0,0-1.9-3.7-0.5-7c-1.8-4.4-3.7-6-3.7-6l-0.2-0.3"/>
<path class="st0" d="M28.6,22.2c0,0,0.8,6,4.5,8.2c3.7,2.1,3.8,5.7,3.8,5.7s-1,3.8-5.3,7.8s-10.4,2.9-10.4,2.9s-8.4-4.2-5.9-5.5
	c2.4-1.2,4.5-3.5,5.8-2.6s-1.1,0.1-3.2,3.1c-0.7,2,5.9,0.9,5.9,0.9s1.1,0.1,0-0.9s-5.6-8.6-5.2-10.7c0.5-2.1-2-3.2,1-7.8
	c0,0-3.1-3.6,0-8.2"/>
<path class="st0" d="M24.9,13.8c0,0,0.4-0.7,0.8-0.6C26,13.2,24.3,15.1,24.9,13.8z"/>
<path class="st0" d="M25.6,15.1c0,0-0.8-1.6,1.2-1.6"/>
<ellipse transform="matrix(0.6376 -0.7703 0.7703 0.6376 1.1822 24.0788)" class="st1" cx="26.2" cy="10.8" rx="0.9" ry="0.6"/>
<ellipse transform="matrix(0.6376 -0.7703 0.7703 0.6376 -2.5368 22.3644)" class="st1" cx="22.5" cy="13.9" rx="0.9" ry="0.6"/>
</svg>
