<?xml version="1.0" encoding="utf-8"?>
<!-- Generator: Adobe Illustrator 24.3.0, SVG Export Plug-In . SVG Version: 6.00 Build 0)  -->
<svg version="1.1" id="Layer_1" xmlns="http://www.w3.org/2000/svg" xmlns:xlink="http://www.w3.org/1999/xlink" x="0px" y="0px"
	 viewBox="0 0 50 50" style="enable-background:new 0 0 50 50;" xml:space="preserve">
<style type="text/css">
	.st0{fill:none;stroke:#010101;stroke-width:2;stroke-miterlimit:10;}
	.st1{fill:none;stroke:#6B6B6B;stroke-miterlimit:10;}
</style>
<path class="st0" d="M264.1,481.4c0,0-4.5-4.5-4.1-11.3c0.1-1.2,0.3-2.5,0.7-3.8c0.2-0.8,0.6-1.7,1-2.5c1.6-3.4,4.7-7.1,9.8-10.9
	c0,0-11-14.7-3.1-20s5.7-14.5,5.7-14.5s7.9-16.9,26.3-14.2c18.4,2.7,43.5,22.1,43.5,22.1s21.1,9.9,20.4,24.3s14.9,61.6-42.5,82
	c0,0-18.6,1.5-27.8-6.5c-9.2-7.9-28.1,6-40.2-27.3c-6.7-18.2-10.5-35.5-7-50c2.8-12,10.7-22,25.9-29.2c33.8-15.9-20.6,2.2-11.7,45.2
	"/>
<path class="st0" d="M298.6,457.3c0,0-4.2-10.7-27.2-4.5"/>
<path class="st0" d="M277.3,431.2c0,0,4.2-7.7,10.7-5.7"/>
<path class="st0" d="M288,405.4c0,0-7.7-19.4,0-15.4s17.5,15.3,17.5,15.3"/>
<path class="st0" d="M315.5,449.8c0,0,10.4,5.5,1.7,7.5s-3.2-9.9-17.6,1.2c-6.2,9.9,5.8,12.9,5.8,12.9s6.2,10.9,0.5,22.4"/>
<path class="st0" d="M320.7,488.1c0,0,2.6,5.4-12.4-3.5"/>
<path class="st1" d="M13.7,30.9c0,0-1.4-1.4-1.3-3.4c0-0.4,0.1-0.7,0.2-1.2c0.1-0.2,0.2-0.5,0.3-0.8c0.5-1,1.4-2.2,3-3.3
	c0,0-3.4-4.5-0.9-6.1s1.7-4.4,1.7-4.4s2.4-5.1,8-4.3s13.2,6.7,13.2,6.7s6.4,3,6.2,7.4s4.5,18.7-12.9,24.9c0,0-5.7,0.5-8.4-2
	c-2.8-2.4-8.5,1.8-12.2-8.3c-2-5.5-3.2-10.8-2.1-15.2c0.9-3.6,3.2-6.7,7.9-8.9c10.3-4.8-6.3,0.7-3.5,13.7"/>
<path class="st1" d="M24.2,23.6c0,0-1.3-3.2-8.3-1.4"/>
<path class="st1" d="M17.7,15.7c0,0,1.3-2.3,3.2-1.7"/>
<path class="st1" d="M21,7.8c0,0-2.3-5.9,0-4.7s5.3,4.6,5.3,4.6"/>
<path class="st1" d="M29.3,21.3c0,0,3.2,1.7,0.5,2.3s-1-3-5.4,0.4c-1.9,3,1.8,3.9,1.8,3.9s1.9,3.3,0.2,6.8"/>
<path class="st1" d="M30.9,32.9c0,0,0.8,1.6-3.8-1.1"/>
</svg>
