<?xml version="1.0" encoding="utf-8"?>
<!-- Generator: Adobe Illustrator 24.3.0, SVG Export Plug-In . SVG Version: 6.00 Build 0)  -->
<svg version="1.1" id="Layer_1" xmlns="http://www.w3.org/2000/svg" xmlns:xlink="http://www.w3.org/1999/xlink" x="0px" y="0px"
	 viewBox="0 0 50 50" style="enable-background:new 0 0 50 50;" xml:space="preserve">
<style type="text/css">
	.st0{fill:none;stroke:#010101;stroke-width:2;stroke-miterlimit:10;}
	.st1{fill:none;stroke:#6B6B6B;stroke-miterlimit:10;}
	.st2{fill:none;stroke:#6B6B6B;stroke-width:1;stroke-miterlimit:9.9998;}
</style>
<path class="st0" d="M264.1,481.4c0,0-4.5-4.5-4.1-11.3c0.1-1.2,0.3-2.5,0.7-3.8c0.2-0.8,0.6-1.7,1-2.5c1.6-3.4,4.7-7.1,9.8-10.9
	c0,0-11-14.7-3.1-20s5.7-14.5,5.7-14.5s7.9-16.9,26.3-14.2c18.4,2.7,43.5,22.1,43.5,22.1s21.1,9.9,20.4,24.3s14.9,61.6-42.5,82
	c0,0-18.6,1.5-27.8-6.5c-9.2-7.9-28.1,6-40.2-27.3c-6.7-18.2-10.5-35.5-7-50c2.8-12,10.7-22,25.9-29.2c33.8-15.9-20.6,2.2-11.7,45.2
	"/>
<path class="st0" d="M298.6,457.3c0,0-4.2-10.7-27.2-4.5"/>
<path class="st0" d="M277.3,431.2c0,0,4.2-7.7,10.7-5.7"/>
<path class="st0" d="M288,405.4c0,0-7.7-19.4,0-15.4s17.5,15.3,17.5,15.3"/>
<path class="st0" d="M315.5,449.8c0,0,10.4,5.5,1.7,7.5s-3.2-9.9-17.6,1.2c-6.2,9.9,5.8,12.9,5.8,12.9s6.2,10.9,0.5,22.4"/>
<path class="st0" d="M320.7,488.1c0,0,2.6,5.4-12.4-3.5"/>
<path class="st1" d="M4.6,29.6c0,0-3.3,1.1-2.6-0.2s2.7-2.8,2.7-2.8"/>
<path class="st1" d="M1.8,32.1"/>
<path class="st1" d="M17,31c0.9-1.5,1.8-3.1,1.4-4.7c-0.7-1.6-3-1.4-4.2-2.8c-1.2-1.6-0.5-3.7,0.2-5.4c0.2-0.7-0.2-2.3-1.2-1.6
	c-3.7,2.3-1.6,7.2,0.5,10C13,27.7,12,28.8,11.1,30c-0.7-1.6,0.9-3.3,0.9-4.9c0-0.5-0.5-0.7-1.2-0.5c-0.5,0.2-0.7,0.7-0.9,1.4
	l-0.5,0.2c-0.7-0.5,0.2-1.2,0-1.9c-0.2-0.7-1.2-1.4-2.1-1.2c-0.5,0.2-0.9,0.5-1.2,0.9c-0.2,0.5-0.5,0.9-0.9,1.4c0,0-2,3.4-0.1,5.8
	c1.9,2.3,7.6,4.6,12.6,3.7c5-0.8,2.9-2,7.3-0.3c4.4,1.8,9-0.1,9.2-0.7c0.2-0.6,5.1-6.6,8.4-5c2.7,1.3,3.4,4.8,4.9,5
	c0.1,0,0.8,0,1.1-0.4c0.9-1.3-2.5-6.8-6.8-7.3c-2.5-0.3-5.3,1.1-5.8,1.4s-1.2,0.7-1.2,0.7c-0.3,0.2-0.6,0.4-0.7,0.5"/>
<path class="st1" d="M27.6,30.6c0,0-2.5-3.4,1.2-6.8c1-3.8-3.7-6.6-3.7-6.6s-0.6-1.4,3.5-0.6c0,0,2.3-0.7,2.9,6.9
	c0,0,0.1,1.1,0.5,2.2c0.5,1.2,1.4,2.5,3.3,2.7"/>
<path class="st1" d="M31.9,24.8c0,0,3.5,0-0.3-2.1"/>
<path class="st1" d="M28.8,21.7c0,0-4.2-0.1-0.1,2"/>
<path class="st1" d="M11.4,21.7c0,0-5-4.1-5.2-2.1s5.1,5.1,5.1,5.1l1.9,1.2"/>
<path class="st1" d="M26.9,26.7c-3.3-2.1-8.8-0.9-8.8-0.9"/>
<line class="st1" x1="32.9" y1="24.8" x2="32.5" y2="26.6"/>
<ellipse transform="matrix(0.4514 -0.8923 0.8923 0.4514 -19.4816 21.1375)" class="st2" cx="7.4" cy="26.4" rx="0.6" ry="0.2"/>
</svg>
