<?xml version="1.0" encoding="utf-8"?>
<!-- Generator: Adobe Illustrator 24.3.0, SVG Export Plug-In . SVG Version: 6.00 Build 0)  -->
<svg version="1.1" id="Layer_1" xmlns="http://www.w3.org/2000/svg" xmlns:xlink="http://www.w3.org/1999/xlink" x="0px" y="0px"
	 viewBox="0 0 50 50" style="enable-background:new 0 0 50 50;" xml:space="preserve">
<style type="text/css">
	.st0{fill:none;stroke:#010101;stroke-width:2;stroke-miterlimit:10;}
	.st1{fill:none;stroke:#6B6B6B;stroke-miterlimit:10;}
	.st2{fill:none;stroke:#6B6B6B;stroke-width:0.75;stroke-miterlimit:10;}
</style>
<path class="st0" d="M264.1,481.4c0,0-4.5-4.5-4.1-11.3c0.1-1.2,0.3-2.5,0.7-3.8c0.2-0.8,0.6-1.7,1-2.5c1.6-3.4,4.7-7.1,9.8-10.9
	c0,0-11-14.7-3.1-20s5.7-14.5,5.7-14.5s7.9-16.9,26.3-14.2c18.4,2.7,43.5,22.1,43.5,22.1s21.1,9.9,20.4,24.3s14.9,61.6-42.5,82
	c0,0-18.6,1.5-27.8-6.5c-9.2-7.9-28.1,6-40.2-27.3c-6.7-18.2-10.5-35.5-7-50c2.8-12,10.7-22,25.9-29.2c33.8-15.9-20.6,2.2-11.7,45.2
	"/>
<path class="st0" d="M298.6,457.3c0,0-4.2-10.7-27.2-4.5"/>
<path class="st0" d="M277.3,431.2c0,0,4.2-7.7,10.7-5.7"/>
<path class="st0" d="M288,405.4c0,0-7.7-19.4,0-15.4s17.5,15.3,17.5,15.3"/>
<path class="st0" d="M315.5,449.8c0,0,10.4,5.5,1.7,7.5s-3.2-9.9-17.6,1.2c-6.2,9.9,5.8,12.9,5.8,12.9s6.2,10.9,0.5,22.4"/>
<path class="st0" d="M320.7,488.1c0,0,2.6,5.4-12.4-3.5"/>
<path class="st1" d="M12.2,2.5c0,0,5.4,4.2,17,2.5s8.1-1,8.1-1s-5.3,4.7-5.2,6.8s2.4,4.9-3.4,7.7c-3.1,1.4-7.2,0.5-10.3-1.2
	c-2.7-1.5-4.5-3.7-3.6-5.3c2-3.3-2.7-8.7-2.7-8.7V2.5H12.2z"/>
<path class="st1" d="M30.8,17.7c2.8-2.1,6.7,21.4,4.9,24.8s2,5.4,2,5.4c-5.1,5.4-7-4.4-7-4.4s-0.5-11.4-4-11.4
	c-6.4,1.9-3.3,10.5-3.3,10.5s0,2.5,0,4.1c-2.3,4.6-5.6,1.2-5.6,1.2c1.8-3.2,0.7-4.3,0.7-4.3c-8.5-15.3-0.9-25.9-0.9-25.9
	S25.5,21.7,30.8,17.7z"/>
<path class="st1" d="M32.1,18.2c-8.3,7-14.9,0.6-14.9,0.6"/>
<path class="st1" d="M24,34c0,0,4.7,12.5,0,10.2"/>
<path class="st1" d="M29,34c0,0-2.3,11.3,1.8,9.4"/>
<path class="st1" d="M24.7,33.2c0,0,2.9,15.3,3.7,0"/>
<path class="st1" d="M22.8,15.5c0,0,2-1.1,2.9-0.5c0,0,0,2-0.7,1.7C24.3,16.3,22.4,16.4,22.8,15.5z"/>
<path class="st1" d="M25.7,10.5l3.8-1.2C29.4,9.3,29,13.6,25.7,10.5z"/>
<path class="st1" d="M22,10.7c0,0-2.7,3.4-3.8-1L22,10.7"/>
<ellipse class="st2" cx="19.6" cy="11.1" rx="0.4" ry="0.9"/>
<ellipse class="st2" cx="27.2" cy="10.7" rx="0.4" ry="0.9"/>
</svg>
